<svg xmlns="http://www.w3.org/2000/svg" xml:space="preserve" viewBox="0 0 281.4 250.7"><path d="M96 9.3C82.3 15.1 68.2 20 55.1 26.9c-10.2 5.4-19 13.4-28.6 19.9-4.2 2.8-8.9 4.8-14.1 7.5 3.1 4 5.7 8.3 9.2 11.6 8.5 7.9 15.5 16.6 20 27.3 1.7 4.1 4 5.1 8 3.2 4.3-2.1 8.8-4 13.3-5.6 3.6-1.3 7.5-1 10.6-4.5 1.7-1.9 4.9-1.2 6 2.9 3.8 13.8 2.3 27.7 1.1 41.5-1.3 15.2-3.4 30.3-5 45.5-1.3 11.7-2.3 23.4-3.6 35.1-.3 2.6-1 5.1-1.5 7.8 13.3 0 26.5.1 39.6 0 8.1-.1 16.2-.8 24.2-.2 3 .2 6.2 2.9 8.6 5.3 2.3 2.3-.1 5.7-4.1 5.6-6.3-.1-12.6-1.1-18.8-1.2-10.4-.1-20.8.3-31.2.5-2.8 0-5.8.6-8.4-.1-7.4-2-14.6-5.1-22.7-2.3-.1-1.6-.3-2.6-.3-3.5.7-12.7.9-25.5 2.2-38.1 1.2-12.5 3.7-24.9 5.2-37.5 1.7-14 2.8-28.1 4.2-42.1.1-.6-.4-1.2-.6-1.5-6.2 2.3-12.1 4.6-18.2 6.6-2.5.8-5.2 1.1-7.8 1.3-6.9.4-10-3.9-12.1-9.8C25.1 88.2 15 77.6 6.9 65.8 3.8 61.1 2 55.5 0 50.1c-.3-.9 1.5-3.2 2.8-4.1 12.8-9 25.5-17.8 38.3-26.6 9.2-6.3 18.8-11.7 30-14 7.4-1.5 14.6-3.9 22-5.3 3-.6 6.3.6 9.5 1.1.5.1.9.4 1.4.5 18.8 3 37.5 7.8 56.9 4.8 6.8-1.1 13.6-3 20.4-4.4 3.2-.6 6.6-1.4 9.7-1 1.8.3 4.2 2.6 4.7 4.4.4 1.6-1 4.1-2.3 5.6-1.3 1.4-3.4 2-5.3 2.8-2.5 1.1-4.9 2.2-4.1 5.8.2.8-.7 2.3-1.5 2.8-13.3 7.1-26.6 15.5-42.4 13.6-8.3-1-16.6-4.8-24.3-8.5-5.8-2.8-10.8-7.4-16-11.5-1.5-1.2-2.2-3.3-3.2-5L96 9.3zM147.6 20c-12.8-1.3-24.5-5.3-35.8-11-3.2-1.6-8-2.4-11.6 1.9 6.4 2.9 12.8 5.2 18.6 8.5 9.6 5.4 19.1 4.7 28.8.6z"/><path d="M187.6 102.3c5.5-1 7.6.9 9.7 7.8.4 1.5 2.2 2.6 3 4 1.5 2.5 3.1 5 4.2 7.7 5.5 14.2 13.4 26.6 24.8 37 9.4 8.6 13.6 19.8 14.2 32.3.2 3.8.2 7.6.3 11.4.3 10.3-4.2 19.2-9.6 27.2-2.7 4-8.4 6-12.7 8.9-1.3.9-3.2 1.4-3.9 2.6-2.7 4.8-6.9 6.5-12 7.8-12.9 3.3-25 1.5-36.6-4.6-11-5.7-17.1-15.4-21.6-26.6-6.9-17.1-.5-31.8 8.1-46.1 7.7-12.7 16.5-24.8 23.6-37.9 4-7.4 7.7-15.6 6.7-24.8-.3-2 1.1-4.2 1.8-6.7zm7.5 22.2c0-.1-.4 1-.7 2-2 6.1-3.1 12.7-6.2 18.1-7.4 13.1-15.8 25.6-23.8 38.3-10.5 16.7-8.8 27.7 2.2 44.3 6.8 10.3 26.7 13.6 39.8 7.9 5.6-2.4 11-5.5 16.4-8.4 1.3-.7 2.9-2.1 3.3-3.5 2.4-9.1 5.6-17.9 4.4-27.7-1.5-12.7-4-24.6-14.2-33.8-5-4.5-8.7-10.8-12-16.8-3.7-6.7-6.3-13.9-9.2-20.4zm22.3-20.6c1.1 7.3 2.2 13.2 2.7 19.3.1 1.8-1.2 4.9-2.5 5.4-2.4.9-5 .6-6.8-2.9-3-5.7-3.1-11.4-2.9-17.4.1-8 .4-16 .7-24 .6-.2 1.1-.4 1.7-.6 1.2.8 2.8 1.3 3.6 2.4 5.6 7.6 14 10.5 22.4 13.3.9.3 2.9-1.2 3.5-2.4 6.3-12.2 12.5-24.5 18.7-36.8 2.7-5.4 5.2-11 8.3-17.5-7.8-3.5-15.4-6.6-22.8-10.2-5.4-2.6-10.5-5.9-15.9-8.6-6.4-3.2-13.1-6-19.5-9.2-3-1.5-5.9-3.6-8.5-5.7-.8-.6-1.3-2.8-.9-3.3.8-.9 2.5-1.7 3.7-1.4 3.4.7 6.6 2.1 10 3 8.3 2.2 16.6 4.1 24.8 6.4 2.2.6 4 2.7 6.2 3.8 7.5 3.8 15.3 6.9 22.4 11.2 5.2 3.2 12.6 3.4 15.1 10.3.5 1.3.2 3.1-.2 4.5-.5 1.9-1.7 3.5-2.2 5.4-2.2 7.6-3.1 15.9-6.7 22.6-7 13-15.5 25.4-23.6 37.8-3.4 5.1-8.2 4.4-14 .9-5.2-3-11.1-4.1-17.3-6.3z"/><path d="M206.9 174.7c6.5-.1 10.7 2.4 12.6 10 1.8 7.6 2.5 15.6 2.5 23.4 0 2.1-3.7 4.4-6 6.3-.1.1-3.2-2-3.3-3.2-.7-7.2-.5-14.6-1.5-21.7-.7-5-2.8-9.8-4.3-14.8z"/></svg>