<svg xmlns="http://www.w3.org/2000/svg" xml:space="preserve" viewBox="0 0 602.7 606.2"><path d="M487.2 488.9c-2.5 1.3-3.7 1.9-3.8 1.9-7.9-3-15-5.8-21.3-10.6-11.5-8.6-24.1-15.7-36.1-23.6-11.5-7.6-25-12.2-34.8-22.7-3.7-4-9.1-6.5-13.9-9.5-9.6-6.2-19.3-12.3-28.8-18.5-3.9-2.5-7.3-5.6-11.2-8.1-6.4-4.2-13-8.1-20.4-12.6.6 3.5.4 6.3 1.5 8.5 4.3 8.9 3.6 18.3 3.7 27.7 0 2.6 0 5.2-.7 7.6-.3 1.1-2.2 2.3-3.6 2.5-1 .1-2.8-1.2-3.1-2.2-1.5-4.5-2.7-9.1-3.9-13.7-1.4-5.4-2.8-10.9-4.3-17-1.9 1.9-3.2 3.6-4.9 4.7-1.2.8-2.9 1.5-4.3 1.3-.6-.1-1.6-2.6-1.3-3.7 1.6-6.4 3.6-12.6 5.3-19 .6-2.2 1.5-4.6.9-6.6-6.6-25.1-18-48-32-69.8-7-10.8-12.7-22.5-18.7-33.9-8-15.3-15.7-30.7-23.6-46.3-6.8 3.7-12.9 7.1-19 10.3-2 1.1-4.2 2.2-6.4 2.6-2 .4-4.2-.2-6.3-.4.7-2.4.8-5.1 2.1-7 1.3-1.7 3.9-2.5 5.9-3.6 7.2-4.1 14.7-7.8 21.5-12.4 2.5-1.6 3.6-5.3 5.3-8.1 2.1-3.5 4.1-7.2 6.3-10.7.6-1 1.9-2.2 2.9-2.3 2.1-.2 5-.5 6.1.7 1 1.1.6 4.1.1 6-.8 3-1.8 6.2-3.6 8.7-4.8 6.6-2.5 12.6 1.3 18.2 4.4 6.6 9.2 13 14.5 18.9 8.6 9.6 19 17.9 26.4 28.3 12 16.9 29.7 27.8 43.1 43.1 10.3 11.8 22.7 21.8 34.2 32.5 5.7 5.2 11.8 10 17.5 15.2 3.8 3.4 3.3 7.4-.9 12.4 7 10.4 14.4 20.6 20.9 31.4 3.3 5.5 4.6 12.3 7.6 18 1.5 2.8 4.5 5.1 7.3 6.8 13.2 7.7 26.7 14.7 39.7 22.7 7.8 4.8 14.8 11.1 22.1 16.6 1 .8 2.2 1.6 3.4 1.8 10.7 1.1 14.2 2.8 20.4 10.2 7.1-1.4 13.9 4.3 16.5 12.3 3.1 9.8 2.4 19.1-1.6 28.2-1.6 3.7-3.9 7.1-6.3 11.5 5.7-1.3 10.8-.3 14.7-5 1.4-1.7 4.9-1.8 7.4-2.5 13.5-3.7 22.8-13.6 32.5-20.8-3.4-7.5-6.1-13.9-9.1-20.1-5.8-12-11-24.4-17.7-35.9-11.6-20.1-24.1-39.6-36.2-59.4-7.2-11.8-14.3-23.5-21.4-35.4-3.5-5.8-6.8-11.8-10.2-17.7-1.4-2.5-2.6-4.8-6.4-4.2-1.4.2-3.8-1.6-4.5-3.1-4.7-8.9-8.4-18.3-13.6-26.8-10.6-17.5-21.7-34.7-33.1-51.8-17.2-25.6-34.9-50.9-52.2-76.5-11.4-16.8-23.3-33.2-37.1-48.2-2.2-2.4-4.1-5.1-6.4-8.1-.9 1.7-1.5 3-2.6 5-3.9-4.6-7.6-8.6-11-12.9-4.1-5.2-7.7-10.8-11.9-15.9-.8-.9-3.6-1.4-4.7-.7-6.8 4.2-14 7.1-22 7.2-2.6 0-5.4 0-7.8-1-7.4-2.9-14.6-6.3-21.9-9.4-9.2-4-15.1-11.6-21.2-19-.7-.9-1.1-2-1.6-3.1-.3-.7-.4-1.5-.9-3.4 2.5.3 4.6 0 6 .9 5.7 3.6 11.5 7.2 16.7 11.5 8.5 7.1 18.6 10.8 28.9 13.9 4 1.2 9.3-1.5 13.4-6-19.6-16.5-34.1-39-59.6-50.5-1 4.9-2 9.5-2.8 14.2-1.1 6.1-3 11.6-9.1 14.6-.3.1-.8.2-.9.5-1.9 6.1-7.8 4.8-12 6.6-4.1 1.7-5.9-.5-7-3.8-.4-1.2-.5-2.8-.2-3.9 2.5-7.6-2.2-12.5-7-16.5-5.1-4.2-11.1-7.2-16.8-10.5-1-.6-3.2-.3-4.3.4-6.2 3.8-12.3 7.9-18.3 12-1.9 1.3-3.7 2.8-5.3 4.5-2.6 2.8-3.5 5.4-.1 8.8 1.5 1.5 1.6 4.9 1.4 7.4-.3 3.4-.7 6.1 2.6 8.6 3 2.3 5.2 5.8 8.1 9.2 7.6-6.5 14.7-12.7 21.9-18.7 1.6-1.3 3.7-2.5 5.7-2.9 1.4-.3 4 .6 4.4 1.6.6 1.4.2 4.1-.8 5.1-5.7 5.8-11.8 11.2-17.7 16.9-2.7 2.6-5 5.5-6.9 7.6 1.8 4 3.3 7 4.7 10.1.1.3.2.7.4.9 7 11.8 13.7 23.8 21.1 35.3 3.9 5.9 9 11.1 13.9 16.3 3.1 3.3 1.6 6.8.1 9.2-3 5.1-7 9.7-13.2 11.5-4.8 1.4-6.7.3-8.3-4.9 4-3.4 8-6.9 12.8-11-7.8-9.1-15.9-17.1-22.2-26.3-6.1-8.8-10.4-18.7-15.4-28.2-.6-1.2-1-2.6-1.8-3.5-10.7-11.6-21.6-23-35.1-31.4-1.5-.9-4.6-.7-6.2.2-8 5.2-16.1 10.5-24.3 15.5-1.4.8-3.6 1-5.3.8-3.4-.4-4.3 1.1-3.6 4 1.2 5.1 2.5 10.2 3.8 15.3 1.1 4.2 1.8 8.7 3.5 12.7 1.2 2.9 3.6 5.4 6 7.5 4.1 3.5 8.9 6.3 12.9 9.9 1.1 1 1.5 4.6.7 5.7-1.8 2.2-4.5 4-7.2 5-5 1.9-10.3 3.1-15.5 4.5-.7.2-1.9.1-2.4-.3-4.4-4.4-7.3-.3-11 1.5-8.3 4.2-16.9 7.9-26 12.1 1.7 3.4 4.4 7.8 6.1 12.5 4.1 11.3 7.7 22.8 11.6 34.2 2 5.7 4.2 11.4 6.3 17.1 2.2 5.8 1.4 8.1-4.4 12.2-5.9-6.8-10.3-14.5-13.1-23.1-4.7-14.5-9.5-28.9-14.4-43.3-1.2-3.6-3.4-6.9-4.9-10.5-.6-1.5-.4-3.3-.5-4.8-3.1-4.1-7-8.2-9.7-12.9-3.6-6.2-6.4-12.7-9.2-19.3-.6-1.5 0-3.5 0-5.3 1.8.4 4.6.1 5.4 1.2 6.8 9.1 13.4 18.4 19.6 28 .8 1.2-1.2 4.2-1.8 6.5 5.2 2 4.9-4.4 7.7-6.3 4 4.1 7.7.5 10.8-.7 5.3-2.2 10.1-5.6 14.3-8-4.2-6.1-9.1-11.7-12-18.1-3-6.5-4.1-13.9-6.2-21.4-2.7 1.9-5.7 3.8-8.5 6-6.9 5.2-13.9 10.2-22.9 10.7-2.1.1-4.3-1-6.4-1.6.6-2.1.6-4.9 1.9-6.1 9.7-8.7 19.8-17.1 29.6-25.7 6.7-6 13.1-12.4 21.7-15.7C69.9 71.3 82.9 59.3 98 50.7c3.7-2.1 6.9-5.2 10.5-7.7 12-8.1 24.5-15.5 38.8-19.2.7-.2 1.9-.6 2-1.1 2.2-7.7 9.3-7.6 14.9-8.6 5.9-1.1 9.6-4.6 13.8-7.9 3.6-2.9 6.6-6.9 12.3-6.1 3.6.5 4.8 2.3 3.3 4.8-2.5 4.1-6 7.6-9.1 11.3 7.7 6.3 16 13.1 24.6 20.2 4-2.3 5-4.8 1.9-9.3-4-6-8.8-11.5-13.1-17.3-.9-1.2-2.1-3.7-1.6-4.3 1.3-1.5 3.7-3.6 5.2-3.2 3.3.9 7.2 2.3 9.3 4.8 5.6 6.9 10.2 14.7 15.7 21.7 2.4 3 5.8 5.5 9.2 7.3 13.1 7.2 22.6 18.3 33.1 28.5 2.3 2.2 4.3 4.9 7.1 6.3 10.3 5.1 17.8 13.4 26 21.1 7.5 6.9 15.8 13 23 20.2 7.5 7.5 14.5 15.6 20.8 24.2 13.5 18.3 26.3 37.1 39.5 55.6 9.6 13.5 19.6 26.8 29.2 40.3 5.6 8 10.7 16.3 16 24.4 6.3 9.7 12.7 19.4 18.9 29.2 3.1 5 5.8 10.2 8.7 15.3.6 1.1 1.2 2.8 2.2 3.1 10.8 3.4 14 13.5 19 21.8 9.1 15.6 17.9 31.4 26.9 47.1 7.6 13.2 15.3 26.4 23 39.5 8.6 14.6 17.5 28.9 25.8 43.6 3.8 6.7 6.2 14.1 9.7 21 .7 1.4 3.4 2.8 5 2.6 7.3-.7 13.2 1.6 18.1 7 8.3 9.2 14.6 19.1 15.1 32.2.3 8.1.8 7.8-6.1 11.8-5.1 3-9.5 6.9-14.3 10.3-4.9 3.5-9.9 7-15.1 10.1-6.7 4.2-13.9 7.6-20.3 12.1-5.7 4.1-12 4.8-18.6 5.9-9.9 1.7-19.6 5-29.3 7.6-2.5.7-5.2 2-7.7 1.8-5.9-.7-9.2 2.3-12.8 6.3-5.7 6.3-12 12.3-18.9 17.3-4.4 3.3-9.8 6.3-15.9.6-3.7-3.5-9.3-4.7-13.7-7.5-1.7-1.1-3.3-3.8-3.3-5.8 0-9.7 4.2-18.2 8.4-26.7 2.7-5.3 6-10.3 8.5-15.7 7.5-16.5 17.9-31 30-44.2 3.7-4 8.1-7.4 12.1-11.2.3-.3.4-1 1.4-2.9zM384 412.3c.3-.2.5-.4.8-.6-6.7-11.6-13.2-23.3-20.1-34.8-2.6-4.4-1.4-10.8-7.2-13.6-2.4-1.1-4.4-3-6.5-4.6-7.7-6.2-15.2-12.6-23-18.8-6.3-5-12.9-9.8-19.4-14.6-4.8-3.6-9.6-7.2-15-11.4.4 1.7.4 2.5.7 3.2 5.5 13.1 11.1 26.2 16.5 39.4 1 2.4 1.3 5.2 2.2 7.7 1 2.8 1.5 6.8 3.6 7.9 6.8 3.7 14.3 6 21.1 9.7 4.8 2.6 8.6 6.9 13.2 10 5.3 3.4 11 6 16.4 9.4 5.7 3.4 11.2 7.3 16.7 11.1zm71.4 181.1c-.5-2-.5-4-1.2-4.4-4.4-2.3-2.2-5.9-1.5-8.7.9-3.6 2.5-7.2 4.3-10.5 6.5-12.1 13.9-23.8 19.8-36.2 5.9-12.6 14.9-22.5 24.3-32.3 3.1-3.2 3.4-4.9-.3-7.2-23.7 13.3-63.1 75.5-60.3 95.2 4.6 1.3 9.4 2.6 14.9 4.1zm3.4-4c12.3-7.3 46.3-64.6 46.3-79.2-4.7 7.1-8.9 12.9-12.6 19.1-5.9 9.7-11.4 19.7-17.2 29.5-5.7 9.6-8.6 20.8-17 28.8-.2.2.2.9.5 1.8zM57.1 98.4c-1.8 1.8-3.8 2.9-4.1 4.3-.9 4.1-1.9 8.5-1.4 12.6 1.7 15.5 11.2 25.9 23.9 34.3 1.7-1.1 3.7-2.5 6.2-4.2-14.3-12.3-22.5-27.3-24.6-47zM543.7 550c-.2-.4-.4-.8-.7-1.2-6.3-.2-12.7-.3-19-.6-6.1-.3-12.1-.7-18.2-.9-.9 0-2.2.9-2.7 1.7-3.7 5.9-7.2 11.8-10.7 17.7.4.3.7.6 1.1.9 16.7-5.9 33.5-11.7 50.2-17.6zm43.7-36.9c-1.1-2.7-2.4-5.8-4.1-9.9-9.7 15.4-24 23.7-37.5 32.9 2.5.2 4.9.7 7.4.7 3.3 0 7.2.6 9.7-.9 9.5-5.8 18.1-12.8 24.5-22.8zM156.9 25.9c2.5 1.3 4 2 5.4 2.8 6.8 3.4 14.4 5.8 20.1 10.5 6.7 5.5 15.3 10.6 15.7 21.6 1-4.2 3-9.5 1.3-12.6-5.8-10.5-14.5-18.5-25.7-23.2-2.7-1.2-6.1-1.2-9.2-1.2-2 0-4 1-7.6 2.1z"/><path d="M55.7 255.1c1.5-1.5 3.6-2.6 4.3-4.4 5.4-14.3 10.8-28.6 15.4-43.1 1.2-3.8.6-8.8-.8-12.6-3.6-9.9-8.1-19.4-12.1-29.1-.5-1.3-.7-2.8-1-4.2 1.7.3 3.5.2 5 .9 7.3 3.9 11.4 10.9 14.6 17.8 3.5 7.6 5.2 16.1 7.4 24.3.4 1.3.1 3-.4 4.4-3.2 9.1-6.5 18.2-9.8 27.3-2.5 6.8-3.8 14.3-7.6 20.3-4.4 7-.7 11.7 2.2 16.9 5.6 9.9 10.9 20.2 17.7 29.3 11 14.9 23.2 29 34.8 43.5 11.8 14.9 23.3 30 35.2 44.8 8.2 10.2 16.7 20.2 25.2 30.2 6 7.1 11.8 14.5 18.7 20.6 8.9 7.8 18.4 15 28.3 21.5 14.1 9.3 28.8 17.7 43.3 26.3 4.8 2.8 9.9 5.1 14.5 8.1 10.8 7.1 21 15 32.1 21.6 21.5 12.8 43 25.6 65.1 37.2 10.6 5.6 20.5 11.9 29.4 19.8.6.5 1.3 1 2 1.4 7 3.7 7 3.8 1.5 10.1-2.1-.7-4.4-1.2-6.4-2.1-1.4-.6-3.7-1.9-3.7-2.8.2-4.7-3.5-5-6.4-6.3-23-10.7-45.6-22-67-35.7-17.1-10.9-34.2-21.7-51.5-32.2-14.5-8.9-29.3-17.4-44-26.1-2.8-1.7-5.1-4.2-8-5.7-18.5-9.9-34.7-23.1-49.2-38-12.2-12.6-22.5-26.9-33.4-40.7-12.1-15.4-24-31.3-36.1-46.9-7.2-9.3-14.8-18.3-22.1-27.5-8.8-11.2-18.3-22-25.8-34-5.6-8.9-8.5-19.6-12.6-29.5-.3-.7-.5-1.6-.5-2.4 0-1.1.3-2.3.5-3.4.4.1.8.2 1.2.4zm68.1-134.2c-4.5 3.1-8.9 6.2-13.3 9.2-6.4 4.3-13.8 4.2-21 4.4-1.3 0-3.9-2.2-3.7-3 .4-2.2 1.5-4.7 3.2-6.1 1.3-1.1 3.9-1.5 5.7-1.2 8.2 1.3 13.7-3.6 19.7-7.8 3.1-2.2 6.7-3.9 10.3-5.2 1.2-.4 4.1.8 4.4 1.8.4 1.3-.7 3.4-1.6 4.8-1.1 1.3-2.6 2.2-3.7 3.1zm-19.2-13.6c-1-1.7-1.7-2.8-2.4-4-4.5-7.8-4-9.9 4.6-10.8 5-.5 10.6 1.7 15.3 3.9 3.4 1.6 3.2 7.4.7 11.6-1.6 2.6-8.3 4.7-11.6 3.3-2.4-1.2-4.6-2.9-6.6-4zm373.7 286.8c-2-2.7-4.4-5.2-5.9-8.2-4.3-8.7-8.2-17.6-12.2-26.5-.5-1.1-.3-2.6-.7-3.8-.9-3.1.6-5.3 3.4-5.3 1.8 0 4.5 1.8 5.2 3.4 3.9 9.3 7.4 18.6 10.6 28.1 1.2 3.5 1.2 7.4 1.8 11.1-.7.3-1.5.8-2.2 1.2z"/><path d="M386.1 538c3.8-.7 7.5-2.3 11.1-2 6.2.6 12.3 2.1 18.4 3.6 1.3.3 2.9 2.6 2.9 3.9-.1 1.5-1.7 3.9-3 4.1-4.1.7-8.4.8-12.6.6-4.6-.3-9.2-1-13.8-1.9-1.8-.3-4.4-1.1-4.8-2.3-.6-1.4.9-3.5 1.8-6zM154.8 168.6c-6.1-6.5-11.3-12-16.4-17.5-2.1-2.2-5.6-5.1-2.5-7.9 3-2.7 5.9-.2 8.5 2.9 4.6 5.3 10 9.9 15 14.8.4.3 1.1.5 1.2.8.9 2.9 2.8 6.1 2.2 8.6-.7 2.5-6.1.9-8-1.7zm111.7 44.5c-6.1 3.1-11.8 6.1-17.6 8.8-1 .5-3.2 0-3.7-.8-.6-.9-.5-3.3.2-3.9 7.1-5.6 14.1-11.3 21.7-16.2 2.9-1.9 5.4.3 4.3 3.8-1 3-3.3 5.6-4.9 8.3z"/></svg>